<?xml version="1.0" standalone="no"?>
<!DOCTYPE svg PUBLIC "-//W3C//DTD SVG 20010904//EN"
 "http://www.w3.org/TR/2001/REC-SVG-20010904/DTD/svg10.dtd">
<svg version="1.0" xmlns="http://www.w3.org/2000/svg"
 width="95.000000pt" height="95.000000pt" viewBox="0 0 95.000000 95.000000"
 preserveAspectRatio="xMidYMid meet">
<metadata>
Created by potrace 1.14, written by Peter Selinger 2001-2017
</metadata>
<g transform="translate(0.000000,95.000000) scale(0.100000,-0.100000)"
fill="#000000" stroke="none">
<path d="M454 896 c-21 -21 -34 -44 -34 -60 0 -15 -6 -28 -12 -30 -7 -2 -35
-10 -62 -17 -112 -29 -226 -139 -265 -256 -94 -280 162 -562 464 -513 126 21
251 113 307 228 31 62 33 74 33 167 0 90 -3 106 -29 160 -56 114 -171 202
-295 225 -66 12 -83 25 -79 59 2 18 13 31 35 42 35 18 33 29 -5 29 -14 0 -38
-14 -58 -34z m152 -234 c173 -89 208 -328 66 -453 -58 -51 -117 -73 -197 -73
-78 1 -126 17 -185 64 -93 74 -127 214 -78 321 36 80 96 133 178 160 46 15
171 4 216 -19z"/>
<path d="M254 395 c-4 -8 6 -40 20 -69 30 -60 93 -111 153 -122 122 -23 252
59 270 170 6 37 6 37 -27 34 -27 -3 -34 -9 -45 -41 -17 -50 -32 -67 -80 -88
-57 -26 -104 -24 -152 8 -41 26 -53 42 -73 96 -7 20 -16 27 -35 27 -14 0 -28
-7 -31 -15z"/>
</g>
</svg>
